<?xml version="1.0" encoding="UTF-8" standalone="no"?>
<!-- Created with Inkscape (http://www.inkscape.org/) -->

<svg
   xmlns:osb="http://www.openswatchbook.org/uri/2009/osb"
   xmlns:dc="http://purl.org/dc/elements/1.1/"
   xmlns:cc="http://creativecommons.org/ns#"
   xmlns:rdf="http://www.w3.org/1999/02/22-rdf-syntax-ns#"
   xmlns:svg="http://www.w3.org/2000/svg"
   xmlns="http://www.w3.org/2000/svg"
   xmlns:sodipodi="http://sodipodi.sourceforge.net/DTD/sodipodi-0.dtd"
   xmlns:inkscape="http://www.inkscape.org/namespaces/inkscape"
   width="120mm"
   height="120mm"
   viewBox="0 0 120 120"
   version="1.1"
   id="svg8"
   inkscape:version="0.92.4 5da689c313, 2019-01-14"
   sodipodi:docname="kescher.svg"
   inkscape:export-filename="/home/olf/Code/kescher/assets/kescher.png"
   inkscape:export-xdpi="84.669998"
   inkscape:export-ydpi="84.669998">
  <defs
     id="defs2">
    <linearGradient
       id="linearGradient2597"
       osb:paint="solid">
      <stop
         style="stop-color:#cccccc;stop-opacity:1;"
         offset="0"
         id="stop2595" />
    </linearGradient>
  </defs>
  <sodipodi:namedview
     id="base"
     pagecolor="#ffffff"
     bordercolor="#666666"
     borderopacity="1.0"
     inkscape:pageopacity="0.0"
     inkscape:pageshadow="2"
     inkscape:zoom="0.63456815"
     inkscape:cx="274.46756"
     inkscape:cy="-89.540086"
     inkscape:document-units="mm"
     inkscape:current-layer="layer1"
     showgrid="false"
     showguides="true"
     inkscape:window-width="1916"
     inkscape:window-height="1041"
     inkscape:window-x="0"
     inkscape:window-y="18"
     inkscape:window-maximized="0"
     fit-margin-top="0"
     fit-margin-left="0"
     fit-margin-right="0"
     fit-margin-bottom="0"
     inkscape:guide-bbox="true">
    <sodipodi:guide
       position="74.282287,64.074789"
       orientation="0,1"
       id="guide2608"
       inkscape:locked="false" />
  </sodipodi:namedview>
  <metadata
     id="metadata5">
    <rdf:RDF>
      <cc:Work
         rdf:about="">
        <dc:format>image/svg+xml</dc:format>
        <dc:type
           rdf:resource="http://purl.org/dc/dcmitype/StillImage" />
        <dc:title></dc:title>
      </cc:Work>
    </rdf:RDF>
  </metadata>
  <g
     inkscape:label="Layer 1"
     inkscape:groupmode="layer"
     id="layer1"
     transform="translate(69.477092,-59.175837)">
    <g
       id="g834"
       transform="matrix(1.0061664,0,0,1.0061664,0.05843954,-11.121653)">
      <path
         sodipodi:nodetypes="sssss"
         inkscape:connector-curvature="0"
         id="path1229"
         d="m 48.186368,119.17583 c 0,31.84665 -25.81681,57.66346 -57.6634598,57.66346 -31.8466492,0 -57.6634602,-25.81681 -57.6634602,-57.66346 -2e-6,-31.846651 25.425152,-26.944595 57.2718022,-26.944595 31.8466508,0 58.0551198,-4.902056 58.0551178,26.944595 z"
         style="opacity:1;fill:#ffffff;fill-opacity:1;fill-rule:nonzero;stroke:#164450;stroke-width:1.5;stroke-linecap:round;stroke-linejoin:miter;stroke-miterlimit:4;stroke-dasharray:none;stroke-dashoffset:0;stroke-opacity:1;paint-order:normal" />
      <g
         transform="translate(-0.04882635,1.3229482)"
         id="g2617">
        <path
           style="opacity:1;fill:#ffffff;fill-opacity:1;fill-rule:nonzero;stroke:#164450;stroke-width:0.99409819;stroke-linecap:round;stroke-linejoin:miter;stroke-miterlimit:4;stroke-dasharray:none;stroke-dashoffset:0;stroke-opacity:1;paint-order:normal"
           d="m -9.6663616,80.725996 c -14.1345794,1.9e-5 -25.0348924,5.7322 -26.1219304,12.427843 -3.536074,21.780551 19.990377,38.048331 26.1219304,38.061431 6.131553,0.0131 30.4547306,-16.11422 26.5328456,-38.061431 C 14.363816,86.095469 4.4682213,80.726015 -9.6663616,80.725996 Z"
           id="path815-3-6-0"
           inkscape:connector-curvature="0"
           sodipodi:nodetypes="cszcc" />
        <path
           style="color:#000000;font-style:normal;font-variant:normal;font-weight:normal;font-stretch:normal;font-size:medium;line-height:normal;font-family:sans-serif;font-variant-ligatures:normal;font-variant-position:normal;font-variant-caps:normal;font-variant-numeric:normal;font-variant-alternates:normal;font-feature-settings:normal;text-indent:0;text-align:start;text-decoration:none;text-decoration-line:none;text-decoration-style:solid;text-decoration-color:#000000;letter-spacing:normal;word-spacing:normal;text-transform:none;writing-mode:lr-tb;direction:ltr;text-orientation:mixed;dominant-baseline:auto;baseline-shift:baseline;text-anchor:start;white-space:normal;shape-padding:0;clip-rule:nonzero;display:inline;overflow:visible;visibility:visible;opacity:1;isolation:auto;mix-blend-mode:normal;color-interpolation:sRGB;color-interpolation-filters:linearRGB;solid-color:#000000;solid-opacity:1;vector-effect:none;fill:#164450;fill-opacity:1;fill-rule:nonzero;stroke:none;stroke-width:4;stroke-linecap:round;stroke-linejoin:miter;stroke-miterlimit:4;stroke-dasharray:none;stroke-dashoffset:0;stroke-opacity:1;paint-order:normal;color-rendering:auto;image-rendering:auto;shape-rendering:auto;text-rendering:auto;enable-background:accumulate"
           d="m -9.477088,80.085658 c -7.160404,0 -13.657814,1.425584 -18.537115,3.865234 -4.879301,2.43965 -8.414063,6.085359 -8.414063,10.611329 0,4.525968 3.534762,8.169729 8.414063,10.609379 4.879301,2.43965 11.376711,3.86523 18.537115,3.86523 7.1604,0 13.65781,-1.42558 18.53711,-3.86523 4.879299,-2.43965 8.414059,-6.083411 8.414059,-10.609379 0,-4.52597 -3.53476,-8.171679 -8.414059,-10.611329 -4.8793,-2.43965 -11.37671,-3.865234 -18.53711,-3.865234 z m 0,1.354166 c 10.67662,0.06246 24.402609,4.527442 24.538669,13.122397 0.13716,8.664229 -18.028029,10.663179 -24.538669,10.474609 -6.510641,-0.18857 -24.658808,-2.01196 -24.538677,-10.474609 0.123579,-8.705655 13.862054,-13.184857 24.538677,-13.122397 z"
           id="path815-3-7-3"
           inkscape:connector-curvature="0"
           sodipodi:nodetypes="ssssssssszszsz" />
        <path
           style="opacity:1;fill:#164450;fill-opacity:1;fill-rule:nonzero;stroke:none;stroke-width:28.67591667;stroke-linecap:round;stroke-linejoin:miter;stroke-miterlimit:4;stroke-dasharray:none;stroke-dashoffset:0;stroke-opacity:1;paint-order:normal"
           d="m 221.78711,180.82812 -9.6543,156.76172 c -1.41196,12.94145 1.97941,26.97843 14.63281,26.92383 12.6534,-0.0546 15.89185,-13.28466 14.70118,-26.19922 l -9.70118,-157.48633 z"
           transform="matrix(0.26458333,0,0,0.26458333,-69.477092,59.175837)"
           id="path869-5"
           inkscape:connector-curvature="0"
           sodipodi:nodetypes="cczccc" />
      </g>
    </g>
  </g>
</svg>
